# File created by Blade
# Date/Time:  Mon Sep 29 17:58:21 2014
# Frame Rate: 120.000 fps
#------------------------------------------------------
:FULLY-SPECIFIED
:DEGREES
2962
root -0.366789 2.473035 -8.220376 -40.688558 -0.202421 1.687501
Spine 26.285545 5.266864 7.987390
Head 7.720090 -8.834927 5.308105
LeftShoulder -14.171416 31.384246 12.548110
LeftArm 4.898410 52.415302 -75.896941
LeftForeArm 40.709877 -0.000000 54.589448
LeftHand -41.995189 -0.000000 57.153409
LeftHandThumb1 -26.253704 0.000000 33.147579
RightShoulder -13.091851 -4.495183 -30.921779
RightArm -56.728353 -32.088485 116.707043
RightForeArm 46.399741 -0.000000 56.203197
RightHand -23.576182 -0.000000 -61.782710
RightHandThumb1 -24.326973 -0.000000 -32.862282
LeftUpLeg -51.739540 -2.490930 3.959907
LeftLeg 10.694359 -0.000000 -0.000000
LeftFoot 25.925868 5.183515 -13.983962
LeftToeBase 12.973323 -0.000000 -0.000000
RightUpLeg -108.272357 2.545251 10.241901
RightLeg 103.652367 -0.000000 -0.000000
RightFoot 13.730959 -11.271510 -1.010664
RightToeBase -4.038373 -0.000000 0.000000
2963
root -0.370369 2.476783 -8.240913 -40.784407 -0.368163 1.613316
Spine 26.392760 5.444318 8.038141
Head 8.065928 -8.784891 5.269035
LeftShoulder -13.990180 31.424845 12.786290
LeftArm 5.041241 52.521489 -75.841841
LeftForeArm 40.418130 -0.000000 54.685831
LeftHand -41.864755 -0.000000 57.325200
LeftHandThumb1 -26.253704 0.000000 33.147579
RightShoulder -13.006276 -4.462151 -30.876779
RightArm -56.577938 -32.318092 116.900516
RightForeArm 46.503836 -0.000000 55.864379
RightHand -23.670602 -0.000000 -61.977241
RightHandThumb1 -24.326973 -0.000000 -32.862282
LeftUpLeg -51.763848 -2.482798 4.200074
LeftLeg 10.963198 -0.000000 -0.000000
LeftFoot 25.264952 5.171981 -13.596378
LeftToeBase 14.156069 -0.000000 -0.000000
RightUpLeg -108.656149 2.246066 10.049837
RightLeg 105.269469 -0.000000 -0.000000
RightFoot 13.774248 -10.981156 -1.115652
RightToeBase -4.024713 -0.000000 0.000000
2964
root -0.369141 2.478589 -8.265243 -40.853993 -0.523948 1.588726
Spine 26.526215 5.606853 8.052835
Head 8.312176 -8.695714 5.181069
LeftShoulder -13.817524 31.469682 13.001095
LeftArm 5.218634 52.679336 -75.728537
LeftForeArm 39.968646 -0.000000 54.744836
LeftHand -41.674109 -0.000000 57.344739
LeftHandThumb1 -26.253704 0.000000 33.147579
RightShoulder -12.898761 -4.238771 -30.839792
RightArm -56.564624 -32.367713 117.086362
RightForeArm 46.573815 -0.000000 55.544780
RightHand -23.648707 0.000000 -62.243254
RightHandThumb1 -24.326973 -0.000000 -32.862282
LeftUpLeg -51.792431 -2.554726 4.490309
LeftLeg 11.164914 -0.000000 -0.000000
LeftFoot 24.802275 5.428124 -13.694289
LeftToeBase 14.117067 -0.000000 -0.000000
RightUpLeg -109.106329 1.911104 10.046760
RightLeg 106.896776 -0.000000 -0.000000
RightFoot 14.029522 -10.862162 -1.435124
RightToeBase -4.231343 -0.000000 0.000000
2965
root -0.381292 2.479239 -8.288365 -40.945725 -0.792671 1.432170
Spine 26.709814 5.687741 8.255375
Head 8.497564 -8.583130 5.018581
LeftShoulder -13.723595 31.517752 13.200959
LeftArm 5.481994 52.972296 -75.593421
LeftForeArm 39.342036 0.000000 54.749029
LeftHand -41.394462 -0.000000 57.610498
LeftHandThumb1 -26.253704 0.000000 33.147579
RightShoulder -12.749170 -3.932269 -30.856016
RightArm -56.602283 -32.378486 117.231182
RightForeArm 46.667114 -0.000000 55.256434
RightHand -23.815665 -0.000000 -62.197240
RightHandThumb1 -24.326973 -0.000000 -32.862282
LeftUpLeg -51.899677 -2.435440 4.796693
LeftLeg 11.552634 -0.000000 -0.000000
LeftFoot 24.508630 5.578900 -14.404146
LeftToeBase 13.246379 -0.000000 -0.000000
RightUpLeg -109.492500 1.638313 10.197622
RightLeg 108.526412 -0.000000 -0.000000
RightFoot 14.210622 -10.788683 -1.611299
RightToeBase -4.443243 -0.000000 0.000000
2966
root -0.382495 2.481941 -8.321257 -40.905508 -0.992518 1.420367
Spine 26.779138 5.848441 8.304357
Head 8.720322 -8.403582 4.834744
LeftShoulder -13.605366 31.528986 13.274328
LeftArm 5.777007 53.270230 -75.257637
LeftForeArm 38.590338 -0.000000 54.754556
LeftHand -40.890788 0.000000 57.949679
LeftHandThumb1 -26.253704 0.000000 33.147579
RightShoulder -12.693665 -3.841942 -30.776889
RightArm -56.390016 -32.495095 117.223160
RightForeArm 46.817832 -0.000000 54.949331
RightHand -23.769910 -0.000000 -62.414971
RightHandThumb1 -24.326973 -0.000000 -32.862282
LeftUpLeg -52.074289 -2.402506 5.058970
LeftLeg 11.821366 -0.000000 -0.000000
LeftFoot 24.233359 5.916809 -15.070490
LeftToeBase 12.591116 -0.000000 -0.000000
RightUpLeg -110.024055 1.378378 10.258480
RightLeg 110.161700 -0.000000 -0.000000
RightFoot 14.440805 -10.554336 -2.100375
RightToeBase -4.119139 -0.000000 0.000000
2967
root -0.385993 2.482542 -8.347256 -40.914054 -1.232973 1.352253
Spine 26.931373 5.897635 8.420295
Head 8.831698 -8.170039 4.602782
LeftShoulder -13.604483 31.520547 13.345791
LeftArm 6.161095 53.690602 -74.944844
LeftForeArm 37.985159 -0.000000 54.660875
LeftHand -40.702540 -0.000000 58.346267
LeftHandThumb1 -26.253704 0.000000 33.147579
RightShoulder -12.606911 -3.758762 -30.750232
RightArm -56.117873 -32.657196 117.162468
RightForeArm 47.067586 -0.000000 54.649327
RightHand -23.610562 -0.000000 -62.833314
RightHandThumb1 -24.326973 -0.000000 -32.862282
LeftUpLeg -52.261239 -2.306591 5.317150
LeftLeg 12.218250 -0.000000 -0.000000
LeftFoot 23.713127 5.909484 -15.033440
LeftToeBase 12.743965 -0.000000 -0.000000
RightUpLeg -110.497134 1.132651 10.356501
RightLeg 111.834316 -0.000000 -0.000000
RightFoot 14.519038 -10.299167 -2.263843
RightToeBase -3.790725 -0.000000 0.000000
2968
root -0.388224 2.483395 -8.374746 -40.947953 -1.498737 1.241050
Spine 27.171011 5.877936 8.613424
Head 8.862426 -7.847713 4.362191
LeftShoulder -13.630099 31.463404 13.343786
LeftArm 6.598452 54.168985 -74.601196
LeftForeArm 37.429328 0.000000 54.525636
LeftHand -40.652238 -0.000000 58.851248
LeftHandThumb1 -26.253704 0.000000 33.147579
RightShoulder -12.506348 -3.548685 -30.771607
RightArm -55.919267 -32.748622 117.107713
RightForeArm 47.185129 -0.000000 54.356022
RightHand -23.671259 -0.000000 -62.826442
RightHandThumb1 -24.326973 -0.000000 -32.862282
LeftUpLeg -52.496382 -2.078606 5.449069
LeftLeg 12.793411 -0.000000 -0.000000
LeftFoot 22.903385 5.371986 -13.716938
LeftToeBase 14.302313 -0.000000 -0.000000
RightUpLeg -110.937223 0.862634 10.644401
RightLeg 113.515139 -0.000000 -0.000000
RightFoot 14.637077 -10.132230 -2.807438
RightToeBase -3.639684 -0.000000 0.000000
2969
root -0.394068 2.487035 -8.398009 -40.973487 -1.806221 1.150090
Spine 27.404943 5.910895 8.808345
Head 8.905604 -7.559057 4.184854
LeftShoulder -13.593282 31.386364 13.364464
LeftArm 7.018250 54.656652 -74.312636
LeftForeArm 36.660481 0.000000 54.325170
LeftHand -40.615639 -0.000000 59.612824
LeftHandThumb1 -26.253704 0.000000 33.147579
RightShoulder -12.408220 -3.341061 -30.756359
RightArm -55.770566 -32.851384 117.062270
RightForeArm 47.254437 -0.000000 54.094793
RightHand -23.852424 0.000000 -62.428401
RightHandThumb1 -24.326973 -0.000000 -32.862282
LeftUpLeg -52.733990 -1.788981 5.623387
LeftLeg 13.314635 -0.000000 -0.000000
LeftFoot 22.730425 5.594643 -14.936087
LeftToeBase 12.556356 -0.000000 -0.000000
RightUpLeg -111.372925 0.679577 10.918293
RightLeg 115.232371 -0.000000 -0.000000
RightFoot 14.813403 -9.869906 -3.410743
RightToeBase -3.654984 -0.000000 0.000000
2970
root -0.397058 2.488942 -8.427687 -40.929484 -2.088102 1.051281
Spine 27.583615 5.939566 8.989097
Head 8.971317 -7.289677 4.047673
LeftShoulder -13.457368 31.226377 13.420057
LeftArm 7.277023 55.064205 -74.216008
LeftForeArm 36.068281 -0.000000 54.040115
LeftHand -40.681036 0.000000 60.434104
LeftHandThumb1 -26.253704 0.000000 33.147579
RightShoulder -12.341891 -3.201474 -30.672269
RightArm -55.546357 -33.003825 116.918120
RightForeArm 47.341240 0.000000 53.839360
RightHand -23.922441 0.000000 -62.241684
RightHandThumb1 -24.326973 -0.000000 -32.862282
LeftUpLeg -53.025851 -1.578121 5.837429
LeftLeg 13.822422 -0.000000 -0.000000
LeftFoot 22.290647 5.635781 -15.140116
LeftToeBase 12.421559 -0.000000 -0.000000
RightUpLeg -111.852989 0.467418 11.195424
RightLeg 116.898461 -0.000000 -0.000000
RightFoot 14.879768 -9.641420 -3.741775
RightToeBase -4.186052 -0.000000 0.000000
2971
root -0.398315 2.485308 -8.458352 -40.838624 -2.316235 1.002394
Spine 27.736533 6.013209 9.028150
Head 8.993201 -7.062619 4.203923
LeftShoulder -13.266335 31.076596 13.565171
LeftArm 7.501894 55.357254 -74.229371
LeftForeArm 35.803763 -0.000000 53.693875
LeftHand -41.078118 -0.000000 61.395094
LeftHandThumb1 -26.253704 0.000000 33.147579
RightShoulder -12.325015 -3.075006 -30.516026
RightArm -55.294134 -33.204529 116.779506
RightForeArm 47.472286 -0.000000 53.528341
RightHand -23.898415 -0.000000 -62.336878
RightHandThumb1 -24.326973 -0.000000 -32.862282
LeftUpLeg -53.353515 -1.451038 6.024924
LeftLeg 14.285101 -0.000000 -0.000000
LeftFoot 21.765696 5.803010 -14.913326
LeftToeBase 12.727482 -0.000000 -0.000000
RightUpLeg -112.384091 0.289001 11.490569
RightLeg 118.564352 -0.000000 -0.000000
RightFoot 14.880555 -9.590226 -3.587192
RightToeBase -4.289607 -0.000000 0.000000
2972
root -0.403303 2.488290 -8.489124 -40.807546 -2.660020 0.924955
Spine 28.008711 6.094785 9.213585
Head 8.996404 -6.905176 4.285730
LeftShoulder -12.979394 30.844608 13.735748
LeftArm 7.569118 55.655666 -74.507838
LeftForeArm 35.270384 0.000000 53.197103
LeftHand -41.182816 -0.000000 62.772885
LeftHandThumb1 -26.253704 0.000000 33.147579
RightShoulder -12.259112 -2.777336 -30.411496
RightArm -55.166377 -33.303678 116.684052
RightForeArm 47.683351 0.000000 53.204883
RightHand -23.820610 -0.000000 -62.158458
RightHandThumb1 -24.326973 -0.000000 -32.862282
LeftUpLeg -53.692349 -0.927199 5.986229
LeftLeg 14.918709 -0.000000 -0.000000
LeftFoot 21.388224 5.771231 -15.076100
LeftToeBase 12.623547 -0.000000 -0.000000
RightUpLeg -112.790008 0.151517 11.917978
RightLeg 120.214977 -0.000000 -0.000000
RightFoot 14.809403 -9.461333 -3.498559
RightToeBase -4.387569 -0.000000 0.000000
2973
root -0.405598 2.490926 -8.527401 -40.718122 -2.895541 0.852727
Spine 28.238779 6.029833 9.287095
Head 9.023578 -6.663786 4.318131
LeftShoulder -12.709548 30.732266 13.778866
LeftArm 7.781112 55.842088 -74.659687
LeftForeArm 34.564247 -0.000000 52.621817
LeftHand -41.057728 -0.000000 64.486581
LeftHandThumb1 -26.253704 0.000000 33.147579
RightShoulder -12.133929 -2.591257 -30.285599
RightArm -54.835805 -33.493400 116.527207
RightForeArm 47.649134 -0.000000 52.808094
RightHand -23.977393 -0.000000 -61.871141
RightHandThumb1 -24.326973 -0.000000 -32.862282
LeftUpLeg -54.004796 -0.837774 6.221559
LeftLeg 15.334059 -0.000000 -0.000000
LeftFoot 20.982518 6.224905 -15.161128
LeftToeBase 12.910399 -0.000000 -0.000000
RightUpLeg -113.233196 -0.034014 12.262767
RightLeg 121.870744 -0.000000 -0.000000
RightFoot 14.603355 -9.368987 -3.657207
RightToeBase -4.247934 -0.000000 0.000000
